<svg xmlns="http://www.w3.org/2000/svg" viewBox="0 0 900 440">
  <defs>
    <linearGradient id="bgl3" x1="0" y1="0" x2="0" y2="1">
      <stop offset="0%" stop-color="#f0f9ff"/><stop offset="100%" stop-color="#f8fafc"/>
    </linearGradient>
    <linearGradient id="pipe" x1="0" y1="0" x2="1" y2="0">
      <stop offset="0%" stop-color="#0369a1"/><stop offset="100%" stop-color="#0d9488"/>
    </linearGradient>
    <marker id="arrow" markerWidth="8" markerHeight="8" refX="4" refY="4" orient="auto">
      <path d="M1,1 L7,4 L1,7 Z" fill="#0891b2"/>
    </marker>
  </defs>
  <rect width="900" height="440" fill="url(#bgl3)"/>
  <rect width="900" height="50" fill="#1e3a5f"/>
  <text x="450" y="29" text-anchor="middle" font-family="Inter,Arial,sans-serif" font-size="18" font-weight="800" fill="white">Pipeline de Datos en R y Python</text>
  <text x="450" y="44" text-anchor="middle" font-family="Inter,Arial,sans-serif" font-size="11" fill="#7dd3fc">Unidad 1.3 · data.table · Parquet · polars · ggplot2</text>

  <!-- Stage boxes at y=130 center, h=100 -->
  <!-- Stage 1: FUENTE -->
  <rect x="18" y="88" width="118" height="110" rx="10" fill="#0c4a6e" stroke="#0369a1" stroke-width="2"/>
  <text x="77" y="113" text-anchor="middle" font-family="Inter,Arial,sans-serif" font-size="11" font-weight="800" fill="white">① FUENTE</text>
  <rect x="30" y="120" width="94" height="14" rx="3" fill="#0369a1" opacity="0.7"/>
  <text x="77" y="131" text-anchor="middle" font-family="Inter,Arial,sans-serif" font-size="9.5" fill="white">CSV · JSON</text>
  <rect x="30" y="138" width="94" height="14" rx="3" fill="#0369a1" opacity="0.7"/>
  <text x="77" y="149" text-anchor="middle" font-family="Inter,Arial,sans-serif" font-size="9.5" fill="white">Parquet · APIs</text>
  <rect x="30" y="156" width="94" height="14" rx="3" fill="#0369a1" opacity="0.7"/>
  <text x="77" y="167" text-anchor="middle" font-family="Inter,Arial,sans-serif" font-size="9.5" fill="white">SQL · Cloud</text>
  <text x="77" y="192" text-anchor="middle" font-family="Inter,Arial,sans-serif" font-size="10.5" font-weight="600" fill="#38bdf8">readr · fread()</text>

  <!-- Arrow 1→2 -->
  <line x1="140" y1="143" x2="156" y2="143" stroke="#0891b2" stroke-width="2.5" marker-end="url(#arrow)"/>

  <!-- Stage 2: INGESTIÓN -->
  <rect x="158" y="88" width="118" height="110" rx="10" fill="#0c4a6e" stroke="#0284c7" stroke-width="2"/>
  <text x="217" y="113" text-anchor="middle" font-family="Inter,Arial,sans-serif" font-size="11" font-weight="800" fill="white">② INGESTIÓN</text>
  <rect x="170" y="120" width="94" height="14" rx="3" fill="#0284c7" opacity="0.7"/>
  <text x="217" y="131" text-anchor="middle" font-family="Inter,Arial,sans-serif" font-size="9.5" fill="white">fread() · read_parquet</text>
  <rect x="170" y="138" width="94" height="14" rx="3" fill="#0284c7" opacity="0.7"/>
  <text x="217" y="149" text-anchor="middle" font-family="Inter,Arial,sans-serif" font-size="9.5" fill="white">pl.read_csv()</text>
  <rect x="170" y="156" width="94" height="14" rx="3" fill="#0284c7" opacity="0.7"/>
  <text x="217" y="167" text-anchor="middle" font-family="Inter,Arial,sans-serif" font-size="9.5" fill="white">spark.read()</text>
  <text x="217" y="192" text-anchor="middle" font-family="Inter,Arial,sans-serif" font-size="10.5" font-weight="600" fill="#38bdf8">data.table · polars</text>

  <!-- Arrow 2→3 -->
  <line x1="280" y1="143" x2="296" y2="143" stroke="#0891b2" stroke-width="2.5" marker-end="url(#arrow)"/>

  <!-- Stage 3: LIMPIEZA -->
  <rect x="298" y="88" width="118" height="110" rx="10" fill="#0d3d4e" stroke="#0891b2" stroke-width="2"/>
  <text x="357" y="113" text-anchor="middle" font-family="Inter,Arial,sans-serif" font-size="11" font-weight="800" fill="white">③ LIMPIEZA</text>
  <rect x="310" y="120" width="94" height="14" rx="3" fill="#0891b2" opacity="0.7"/>
  <text x="357" y="131" text-anchor="middle" font-family="Inter,Arial,sans-serif" font-size="9.5" fill="white">NA · duplicados</text>
  <rect x="310" y="138" width="94" height="14" rx="3" fill="#0891b2" opacity="0.7"/>
  <text x="357" y="149" text-anchor="middle" font-family="Inter,Arial,sans-serif" font-size="9.5" fill="white">outliers · imputación</text>
  <rect x="310" y="156" width="94" height="14" rx="3" fill="#0891b2" opacity="0.7"/>
  <text x="357" y="167" text-anchor="middle" font-family="Inter,Arial,sans-serif" font-size="9.5" fill="white">tipos de datos</text>
  <text x="357" y="192" text-anchor="middle" font-family="Inter,Arial,sans-serif" font-size="10.5" font-weight="600" fill="#22d3ee">janitor · tidyr</text>

  <!-- Arrow 3→4 -->
  <line x1="420" y1="143" x2="436" y2="143" stroke="#0891b2" stroke-width="2.5" marker-end="url(#arrow)"/>

  <!-- Stage 4: TRANSFORMACIÓN -->
  <rect x="438" y="88" width="118" height="110" rx="10" fill="#0d3d3a" stroke="#0d9488" stroke-width="2"/>
  <text x="497" y="113" text-anchor="middle" font-family="Inter,Arial,sans-serif" font-size="11" font-weight="800" fill="white">④ TRANSFORM.</text>
  <rect x="450" y="120" width="94" height="14" rx="3" fill="#0d9488" opacity="0.7"/>
  <text x="497" y="131" text-anchor="middle" font-family="Inter,Arial,sans-serif" font-size="9.5" fill="white">filter · group_by</text>
  <rect x="450" y="138" width="94" height="14" rx="3" fill="#0d9488" opacity="0.7"/>
  <text x="497" y="149" text-anchor="middle" font-family="Inter,Arial,sans-serif" font-size="9.5" fill="white">mutate · join</text>
  <rect x="450" y="156" width="94" height="14" rx="3" fill="#0d9488" opacity="0.7"/>
  <text x="497" y="167" text-anchor="middle" font-family="Inter,Arial,sans-serif" font-size="9.5" fill="white">aggregate · pivot</text>
  <text x="497" y="192" text-anchor="middle" font-family="Inter,Arial,sans-serif" font-size="10.5" font-weight="600" fill="#34d399">dplyr · DT[ , ]</text>

  <!-- Arrow 4→5 -->
  <line x1="560" y1="143" x2="576" y2="143" stroke="#0891b2" stroke-width="2.5" marker-end="url(#arrow)"/>

  <!-- Stage 5: ANÁLISIS -->
  <rect x="578" y="88" width="118" height="110" rx="10" fill="#1a1a3e" stroke="#6d28d9" stroke-width="2"/>
  <text x="637" y="113" text-anchor="middle" font-family="Inter,Arial,sans-serif" font-size="11" font-weight="800" fill="white">⑤ ANÁLISIS</text>
  <rect x="590" y="120" width="94" height="14" rx="3" fill="#6d28d9" opacity="0.7"/>
  <text x="637" y="131" text-anchor="middle" font-family="Inter,Arial,sans-serif" font-size="9.5" fill="white">estadísticos · ML</text>
  <rect x="590" y="138" width="94" height="14" rx="3" fill="#6d28d9" opacity="0.7"/>
  <text x="637" y="149" text-anchor="middle" font-family="Inter,Arial,sans-serif" font-size="9.5" fill="white">correlación · modelo</text>
  <rect x="590" y="156" width="94" height="14" rx="3" fill="#6d28d9" opacity="0.7"/>
  <text x="637" y="167" text-anchor="middle" font-family="Inter,Arial,sans-serif" font-size="9.5" fill="white">KNN · logística</text>
  <text x="637" y="192" text-anchor="middle" font-family="Inter,Arial,sans-serif" font-size="10.5" font-weight="600" fill="#a78bfa">caret · sklearn</text>

  <!-- Arrow 5→6 -->
  <line x1="700" y1="143" x2="716" y2="143" stroke="#0891b2" stroke-width="2.5" marker-end="url(#arrow)"/>

  <!-- Stage 6: VISUALIZACIÓN -->
  <rect x="718" y="88" width="166" height="110" rx="10" fill="#1c0d3a" stroke="#9333ea" stroke-width="2"/>
  <text x="801" y="113" text-anchor="middle" font-family="Inter,Arial,sans-serif" font-size="11" font-weight="800" fill="white">⑥ VISUALIZACIÓN</text>
  <rect x="730" y="120" width="142" height="14" rx="3" fill="#9333ea" opacity="0.7"/>
  <text x="801" y="131" text-anchor="middle" font-family="Inter,Arial,sans-serif" font-size="9.5" fill="white">ggplot2 · seaborn</text>
  <rect x="730" y="138" width="142" height="14" rx="3" fill="#9333ea" opacity="0.7"/>
  <text x="801" y="149" text-anchor="middle" font-family="Inter,Arial,sans-serif" font-size="9.5" fill="white">Shiny · Plotly</text>
  <rect x="730" y="156" width="142" height="14" rx="3" fill="#9333ea" opacity="0.7"/>
  <text x="801" y="167" text-anchor="middle" font-family="Inter,Arial,sans-serif" font-size="9.5" fill="white">R Markdown · Quarto</text>
  <text x="801" y="192" text-anchor="middle" font-family="Inter,Arial,sans-serif" font-size="10.5" font-weight="600" fill="#d8b4fe">Reportes · dashboards</text>

  <!-- Bottom: Data flow annotation bar -->
  <rect x="18" y="220" width="866" height="6" rx="3" fill="url(#pipe)" opacity="0.8"/>

  <!-- Data formats section -->
  <text x="450" y="248" text-anchor="middle" font-family="Inter,Arial,sans-serif" font-size="13" font-weight="700" fill="#0f172a">Formatos de Datos en Big Data</text>

  <!-- Format boxes -->
  <rect x="30" y="258" width="130" height="64" rx="8" fill="#f0fdf4" stroke="#16a34a" stroke-width="1.5"/>
  <text x="95" y="276" text-anchor="middle" font-family="Inter,Arial,sans-serif" font-size="11" font-weight="700" fill="#15803d">CSV / TSV</text>
  <text x="95" y="292" text-anchor="middle" font-family="Inter,Arial,sans-serif" font-size="9.5" fill="#374151">Simple, legible</text>
  <text x="95" y="306" text-anchor="middle" font-family="Inter,Arial,sans-serif" font-size="9.5" fill="#6b7280">Lento en escala</text>

  <rect x="178" y="258" width="130" height="64" rx="8" fill="#eff6ff" stroke="#2563eb" stroke-width="1.5"/>
  <text x="243" y="276" text-anchor="middle" font-family="Inter,Arial,sans-serif" font-size="11" font-weight="700" fill="#1d4ed8">Parquet</text>
  <text x="243" y="292" text-anchor="middle" font-family="Inter,Arial,sans-serif" font-size="9.5" fill="#374151">Columnar, rápido</text>
  <text x="243" y="306" text-anchor="middle" font-family="Inter,Arial,sans-serif" font-size="9.5" fill="#6b7280">Compresión eficiente</text>

  <rect x="326" y="258" width="130" height="64" rx="8" fill="#fdf4ff" stroke="#9333ea" stroke-width="1.5"/>
  <text x="391" y="276" text-anchor="middle" font-family="Inter,Arial,sans-serif" font-size="11" font-weight="700" fill="#7e22ce">JSON</text>
  <text x="391" y="292" text-anchor="middle" font-family="Inter,Arial,sans-serif" font-size="9.5" fill="#374151">Semiestructurado</text>
  <text x="391" y="306" text-anchor="middle" font-family="Inter,Arial,sans-serif" font-size="9.5" fill="#6b7280">APIs · anidado</text>

  <rect x="474" y="258" width="130" height="64" rx="8" fill="#fff7ed" stroke="#d97706" stroke-width="1.5"/>
  <text x="539" y="276" text-anchor="middle" font-family="Inter,Arial,sans-serif" font-size="11" font-weight="700" fill="#b45309">ORC / Avro</text>
  <text x="539" y="292" text-anchor="middle" font-family="Inter,Arial,sans-serif" font-size="9.5" fill="#374151">Hadoop ecosistema</text>
  <text x="539" y="306" text-anchor="middle" font-family="Inter,Arial,sans-serif" font-size="9.5" fill="#6b7280">Alta compresión</text>

  <rect x="622" y="258" width="130" height="64" rx="8" fill="#f0fdfa" stroke="#0d9488" stroke-width="1.5"/>
  <text x="687" y="276" text-anchor="middle" font-family="Inter,Arial,sans-serif" font-size="11" font-weight="700" fill="#0f766e">data.table</text>
  <text x="687" y="292" text-anchor="middle" font-family="Inter,Arial,sans-serif" font-size="9.5" fill="#374151">R in-memory</text>
  <text x="687" y="306" text-anchor="middle" font-family="Inter,Arial,sans-serif" font-size="9.5" fill="#6b7280">syntax DT[i, j, by]</text>

  <rect x="770" y="258" width="114" height="64" rx="8" fill="#fdf2f8" stroke="#db2777" stroke-width="1.5"/>
  <text x="827" y="276" text-anchor="middle" font-family="Inter,Arial,sans-serif" font-size="11" font-weight="700" fill="#be185d">polars</text>
  <text x="827" y="292" text-anchor="middle" font-family="Inter,Arial,sans-serif" font-size="9.5" fill="#374151">Python / Rust</text>
  <text x="827" y="306" text-anchor="middle" font-family="Inter,Arial,sans-serif" font-size="9.5" fill="#6b7280">Lazy · ultra-rápido</text>

  <!-- Performance bar -->
  <text x="30" y="350" font-family="Inter,Arial,sans-serif" font-size="11" font-weight="600" fill="#374151">Velocidad relativa de lectura de 1 GB de datos:</text>
  <rect x="30" y="358" width="50" height="14" rx="3" fill="#dc2626"/>
  <text x="85" y="369" font-family="Inter,Arial,sans-serif" font-size="10" fill="#374151">CSV (lento)</text>
  <rect x="160" y="358" width="110" height="14" rx="3" fill="#2563eb"/>
  <text x="275" y="369" font-family="Inter,Arial,sans-serif" font-size="10" fill="#374151">data.table</text>
  <rect x="340" y="358" width="180" height="14" rx="3" fill="#0d9488"/>
  <text x="525" y="369" font-family="Inter,Arial,sans-serif" font-size="10" fill="#374151">Parquet (rápido)</text>
  <rect x="600" y="358" width="265" height="14" rx="3" fill="#7c3aed"/>
  <text x="870" y="369" text-anchor="end" font-family="Inter,Arial,sans-serif" font-size="10" fill="#374151">polars + Parquet (óptimo)</text>
  <!-- Scale labels -->
  <text x="30" y="388" font-family="Inter,Arial,sans-serif" font-size="9.5" fill="#9ca3af">0s</text>
  <text x="430" y="388" text-anchor="middle" font-family="Inter,Arial,sans-serif" font-size="9.5" fill="#9ca3af">5s</text>
  <text x="870" y="388" text-anchor="end" font-family="Inter,Arial,sans-serif" font-size="9.5" fill="#9ca3af">10s</text>
</svg>
