<svg xmlns="http://www.w3.org/2000/svg" viewBox="0 0 900 480">
  <rect width="900" height="480" fill="#f8fafc"/>
  <rect width="900" height="50" fill="#78350f"/>
  <text x="450" y="29" text-anchor="middle" font-family="Inter,Arial,sans-serif" font-size="18" font-weight="800" fill="white">Correlación y Agrupación de Datos</text>
  <text x="450" y="44" text-anchor="middle" font-family="Inter,Arial,sans-serif" font-size="11" fill="#fde68a">Unidad 2.3 · Pearson · Spearman · Chi-cuadrado · groupby · FACEN-UNA 2026</text>

  <!-- Panel 1: r ≈ +0.90 (strong positive) -->
  <rect x="18" y="68" width="264" height="270" rx="8" fill="white" stroke="#d1fae5" stroke-width="2"/>
  <rect x="18" y="68" width="264" height="30" rx="8" fill="#d1fae5"/>
  <text x="150" y="88" text-anchor="middle" font-family="Inter,Arial,sans-serif" font-size="12" font-weight="800" fill="#065f46">Correlación POSITIVA FUERTE</text>
  <!-- Chart axes -->
  <line x1="50" y1="104" x2="50" y2="310" stroke="#9ca3af" stroke-width="1.2"/>
  <line x1="50" y1="310" x2="270" y2="310" stroke="#9ca3af" stroke-width="1.2"/>
  <!-- Scatter dots (positive correlation) -->
  <circle cx="65" cy="295" r="4" fill="#10b981" opacity="0.8"/>
  <circle cx="75" cy="280" r="4" fill="#10b981" opacity="0.8"/>
  <circle cx="88" cy="270" r="4" fill="#10b981" opacity="0.8"/>
  <circle cx="100" cy="260" r="4" fill="#10b981" opacity="0.8"/>
  <circle cx="112" cy="248" r="4" fill="#10b981" opacity="0.8"/>
  <circle cx="125" cy="240" r="4" fill="#10b981" opacity="0.8"/>
  <circle cx="138" cy="228" r="4" fill="#10b981" opacity="0.8"/>
  <circle cx="152" cy="218" r="4" fill="#10b981" opacity="0.8"/>
  <circle cx="165" cy="205" r="4" fill="#10b981" opacity="0.8"/>
  <circle cx="178" cy="196" r="4" fill="#10b981" opacity="0.8"/>
  <circle cx="190" cy="182" r="4" fill="#10b981" opacity="0.8"/>
  <circle cx="202" cy="170" r="4" fill="#10b981" opacity="0.8"/>
  <circle cx="215" cy="158" r="4" fill="#10b981" opacity="0.8"/>
  <circle cx="228" cy="145" r="4" fill="#10b981" opacity="0.8"/>
  <circle cx="240" cy="130" r="4" fill="#10b981" opacity="0.8"/>
  <circle cx="253" cy="116" r="4" fill="#10b981" opacity="0.8"/>
  <!-- Trend line -->
  <line x1="60" y1="300" x2="260" y2="110" stroke="#059669" stroke-width="2.5"/>
  <!-- r value -->
  <rect x="160" y="288" width="100" height="18" rx="4" fill="#d1fae5"/>
  <text x="210" y="300" text-anchor="middle" font-family="Inter,Arial,sans-serif" font-size="13" font-weight="800" fill="#065f46">r = +0.92</text>
  <!-- Axis labels -->
  <text x="160" y="325" text-anchor="middle" font-family="Inter,Arial,sans-serif" font-size="10" fill="#6b7280">años de escolaridad</text>
  <text x="34" y="208" text-anchor="middle" font-family="Inter,Arial,sans-serif" font-size="10" fill="#6b7280" transform="rotate(-90,34,208)">ingreso mensual</text>

  <!-- Panel 2: r ≈ 0 (no correlation) -->
  <rect x="318" y="68" width="264" height="270" rx="8" fill="white" stroke="#fef3c7" stroke-width="2"/>
  <rect x="318" y="68" width="264" height="30" rx="8" fill="#fef3c7"/>
  <text x="450" y="88" text-anchor="middle" font-family="Inter,Arial,sans-serif" font-size="12" font-weight="800" fill="#92400e">SIN CORRELACIÓN</text>
  <line x1="350" y1="104" x2="350" y2="310" stroke="#9ca3af" stroke-width="1.2"/>
  <line x1="350" y1="310" x2="570" y2="310" stroke="#9ca3af" stroke-width="1.2"/>
  <!-- Random scatter -->
  <circle cx="365" cy="230" r="4" fill="#f59e0b" opacity="0.8"/>
  <circle cx="380" cy="165" r="4" fill="#f59e0b" opacity="0.8"/>
  <circle cx="390" cy="285" r="4" fill="#f59e0b" opacity="0.8"/>
  <circle cx="405" cy="120" r="4" fill="#f59e0b" opacity="0.8"/>
  <circle cx="418" cy="250" r="4" fill="#f59e0b" opacity="0.8"/>
  <circle cx="430" cy="185" r="4" fill="#f59e0b" opacity="0.8"/>
  <circle cx="442" cy="130" r="4" fill="#f59e0b" opacity="0.8"/>
  <circle cx="455" cy="270" r="4" fill="#f59e0b" opacity="0.8"/>
  <circle cx="468" cy="148" r="4" fill="#f59e0b" opacity="0.8"/>
  <circle cx="480" cy="215" r="4" fill="#f59e0b" opacity="0.8"/>
  <circle cx="492" cy="295" r="4" fill="#f59e0b" opacity="0.8"/>
  <circle cx="505" cy="160" r="4" fill="#f59e0b" opacity="0.8"/>
  <circle cx="518" cy="230" r="4" fill="#f59e0b" opacity="0.8"/>
  <circle cx="530" cy="108" r="4" fill="#f59e0b" opacity="0.8"/>
  <circle cx="545" cy="275" r="4" fill="#f59e0b" opacity="0.8"/>
  <!-- Flat trend line -->
  <line x1="360" y1="207" x2="558" y2="207" stroke="#d97706" stroke-width="2" stroke-dasharray="6,3"/>
  <rect x="450" y="288" width="100" height="18" rx="4" fill="#fef3c7"/>
  <text x="500" y="300" text-anchor="middle" font-family="Inter,Arial,sans-serif" font-size="13" font-weight="800" fill="#92400e">r = +0.04</text>
  <text x="460" y="325" text-anchor="middle" font-family="Inter,Arial,sans-serif" font-size="10" fill="#6b7280">número de calzado</text>
  <text x="334" y="208" text-anchor="middle" font-family="Inter,Arial,sans-serif" font-size="10" fill="#6b7280" transform="rotate(-90,334,208)">ingreso mensual</text>

  <!-- Panel 3: r ≈ -0.88 (strong negative) -->
  <rect x="618" y="68" width="264" height="270" rx="8" fill="white" stroke="#fee2e2" stroke-width="2"/>
  <rect x="618" y="68" width="264" height="30" rx="8" fill="#fee2e2"/>
  <text x="750" y="88" text-anchor="middle" font-family="Inter,Arial,sans-serif" font-size="12" font-weight="800" fill="#991b1b">Correlación NEGATIVA FUERTE</text>
  <line x1="650" y1="104" x2="650" y2="310" stroke="#9ca3af" stroke-width="1.2"/>
  <line x1="650" y1="310" x2="870" y2="310" stroke="#9ca3af" stroke-width="1.2"/>
  <!-- Negative correlation dots -->
  <circle cx="665" cy="115" r="4" fill="#ef4444" opacity="0.8"/>
  <circle cx="678" cy="128" r="4" fill="#ef4444" opacity="0.8"/>
  <circle cx="690" cy="142" r="4" fill="#ef4444" opacity="0.8"/>
  <circle cx="703" cy="156" r="4" fill="#ef4444" opacity="0.8"/>
  <circle cx="715" cy="168" r="4" fill="#ef4444" opacity="0.8"/>
  <circle cx="728" cy="180" r="4" fill="#ef4444" opacity="0.8"/>
  <circle cx="740" cy="196" r="4" fill="#ef4444" opacity="0.8"/>
  <circle cx="752" cy="210" r="4" fill="#ef4444" opacity="0.8"/>
  <circle cx="765" cy="225" r="4" fill="#ef4444" opacity="0.8"/>
  <circle cx="778" cy="238" r="4" fill="#ef4444" opacity="0.8"/>
  <circle cx="790" cy="252" r="4" fill="#ef4444" opacity="0.8"/>
  <circle cx="802" cy="265" r="4" fill="#ef4444" opacity="0.8"/>
  <circle cx="815" cy="276" r="4" fill="#ef4444" opacity="0.8"/>
  <circle cx="828" cy="289" r="4" fill="#ef4444" opacity="0.8"/>
  <circle cx="845" cy="298" r="4" fill="#ef4444" opacity="0.8"/>
  <!-- Negative trend line -->
  <line x1="660" y1="112" x2="855" y2="303" stroke="#dc2626" stroke-width="2.5"/>
  <rect x="656" y="288" width="100" height="18" rx="4" fill="#fee2e2"/>
  <text x="706" y="300" text-anchor="middle" font-family="Inter,Arial,sans-serif" font-size="13" font-weight="800" fill="#991b1b">r = −0.91</text>
  <text x="760" y="325" text-anchor="middle" font-family="Inter,Arial,sans-serif" font-size="10" fill="#6b7280">tasa de analfabetismo</text>
  <text x="634" y="208" text-anchor="middle" font-family="Inter,Arial,sans-serif" font-size="10" fill="#6b7280" transform="rotate(-90,634,208)">ingreso mensual</text>

  <!-- Bottom: interpretation guide -->
  <rect x="18" y="354" width="864" height="110" rx="8" fill="white" stroke="#e5e7eb" stroke-width="1.5"/>
  <text x="450" y="374" text-anchor="middle" font-family="Inter,Arial,sans-serif" font-size="13" font-weight="700" fill="#0f172a">Interpretación del coeficiente r de Pearson</text>

  <!-- Scale bar -->
  <defs>
    <linearGradient id="rscale" x1="0" y1="0" x2="1" y2="0">
      <stop offset="0%" stop-color="#dc2626"/>
      <stop offset="25%" stop-color="#f97316"/>
      <stop offset="50%" stop-color="#94a3b8"/>
      <stop offset="75%" stop-color="#22c55e"/>
      <stop offset="100%" stop-color="#16a34a"/>
    </linearGradient>
  </defs>
  <rect x="80" y="384" width="740" height="16" rx="4" fill="url(#rscale)"/>
  <!-- Scale ticks -->
  <line x1="80" y1="384" x2="80" y2="402" stroke="white" stroke-width="1.5"/>
  <line x1="265" y1="384" x2="265" y2="402" stroke="white" stroke-width="1.5"/>
  <line x1="450" y1="384" x2="450" y2="402" stroke="white" stroke-width="1.5"/>
  <line x1="635" y1="384" x2="635" y2="402" stroke="white" stroke-width="1.5"/>
  <line x1="820" y1="384" x2="820" y2="402" stroke="white" stroke-width="1.5"/>
  <!-- Scale labels -->
  <text x="80" y="420" text-anchor="middle" font-family="Inter,Arial,sans-serif" font-size="11" font-weight="700" fill="#dc2626">−1.0</text>
  <text x="265" y="420" text-anchor="middle" font-family="Inter,Arial,sans-serif" font-size="11" fill="#92400e">−0.5</text>
  <text x="450" y="420" text-anchor="middle" font-family="Inter,Arial,sans-serif" font-size="11" fill="#475569">0.0</text>
  <text x="635" y="420" text-anchor="middle" font-family="Inter,Arial,sans-serif" font-size="11" fill="#15803d">+0.5</text>
  <text x="820" y="420" text-anchor="middle" font-family="Inter,Arial,sans-serif" font-size="11" font-weight="700" fill="#15803d">+1.0</text>
  <!-- Region labels -->
  <text x="90" y="438" font-family="Inter,Arial,sans-serif" font-size="10" fill="#dc2626">Negativa fuerte</text>
  <text x="320" y="438" font-family="Inter,Arial,sans-serif" font-size="10" fill="#6b7280">Negativa débil</text>
  <text x="430" y="438" font-family="Inter,Arial,sans-serif" font-size="10" fill="#9ca3af">Sin correl.</text>
  <text x="570" y="438" font-family="Inter,Arial,sans-serif" font-size="10" fill="#15803d">Positiva débil</text>
  <text x="730" y="438" font-family="Inter,Arial,sans-serif" font-size="10" fill="#15803d">Positiva fuerte</text>

  <!-- R / Python code hint -->
  <text x="450" y="455" text-anchor="middle" font-family="'Courier New',monospace" font-size="10" fill="#6b7280">R: cor(x, y)  |  Python: df.corr()  •  scipy.stats.pearsonr(x, y)</text>
</svg>
